<?xml version="1.0" encoding="UTF-8"?>
<svg width="614" height="100" viewBox="0 0 252 43" version="1.1" xmlns="http://www.w3.org/2000/svg" xmlns:xlink="http://www.w3.org/1999/xlink">
    <defs>
        <linearGradient x1="50%" y1="100%" x2="50%" y2="0%" id="linearGradient-1">
            <stop stop-color="#D9CDCA" offset="0%" />
            <stop stop-color="#A89F9C" offset="100%" />
        </linearGradient>
        <linearGradient x1="50%" y1="99.875945%" x2="50%" y2="-0.124054983%" id="linearGradient-2">
            <stop stop-color="#D9CDCA" offset="0%" />
            <stop stop-color="#A89F9C" offset="100%" />
        </linearGradient>
        <linearGradient x1="50%" y1="100.128522%" x2="50%" y2="-0.158419244%" id="linearGradient-3">
            <stop stop-color="#D9CDCA" offset="0%" />
            <stop stop-color="#A89F9C" offset="100%" />
        </linearGradient>
        <linearGradient x1="50%" y1="99.8188356%" x2="50%" y2="-0.0667808219%" id="linearGradient-4">
            <stop stop-color="#D9CDCA" offset="0%" />
            <stop stop-color="#A89F9C" offset="100%" />
        </linearGradient>
        <linearGradient x1="50%" y1="99.8549828%" x2="50%" y2="-0.316494845%" id="linearGradient-5">
            <stop stop-color="#D9CDCA" offset="0%" />
            <stop stop-color="#A89F9C" offset="100%" />
        </linearGradient>
        <linearGradient x1="50%" y1="99.8856164%" x2="50%" y2="0.114726027%" id="linearGradient-6">
            <stop stop-color="#D9CDCA" offset="0%" />
            <stop stop-color="#A89F9C" offset="100%" />
        </linearGradient>
    </defs>
    <g id="Page-1" stroke="none" stroke-width="1" fill="none" fill-rule="evenodd">
        <g id="minecraft">
            <g id="Group">
                <g id="Shape" fill="#030303">
                    <polygon points="11.1 42.4 0.2 32.4 10.4 0.7 22.5 0.7 28.1 8.3 28.7 6.1 32 6.1 33.4 0.7 45.8 0.6 46.4 1.7 46.6 0.6 59.1 0.6 59.6 1.7 59.8 0.6 72.4 0.6 74.6 6.2 74.9 6.2 75.3 7.2 76.3 0.6 89.1 0.6 89.4 1.6 89.5 0.6 115.8 0.6 117.1 12.5 116.8 19.6 116.3 19.6 116.7 23.1 116.4 30.7 115.8 30.7 116.3 34.5 116 42.4 89.8 42.4 89.5 41.4 89.4 42.4 76.7 42.4 73.7 36.2 72.8 42.4 60.3 42.4 59.7 41.4 59.5 42.4 47.2 42.4 46.5 41.5 46.3 42.4 34 42.4 28.8 36.4 25.6 36.4 24.8 35.6 23 42.4" />
                    <path d="M155.8,41.4 L155.6,42.4 L142.5,42.4 L141.5,12.5 L142.6,0.5 L169,0.5 L169.1,1.6 L169.4,0.5 L195.6,0.5 L195.8,1.6 L196.3,0.5 L222.2,0.5 L222.5,1.5 L223.1,0.5 L248.8,0.5 L251.2,8.1 L246.1,14.2 L246.1,14.3 C246.5,15.5 246.8,16.7 247.2,17.9 C247.5,18.8 249,23.6 249,23.6 L249.8,26.3 C250,27.1 250.3,27.9 250.5,28.7 L251.2,31.1 L251.5,32.2 L241.3,42.3 L229.1,42.3 L224.4,23 L219,30.5 L215.2,30.5 L215.5,32 L208.3,42.2 L195.8,42.2 L195.6,41.2 L195,42.2 L182.4,42.2 L182.3,41.2 L181.8,42.2 L169.1,42.2 L169,41.1 L168.6,42.2 L155.7,42.2 L155.8,41.4 Z" />
                    <polygon points="114.8 31.9 115.9 0.6 142.5 0.5 142.7 7.9 141.8 19.6 129.5 19.6 129.4 23.6 143.2 23.6 143.4 31.9 142.4 42.4 116.1 42.4" />
                </g>
                <g transform="translate(2.000000, 2.000000)" id="Shape">
                    <polygon fill="url(#linearGradient-1)" points="20.9 5.9 19.3 11.7 26.6 11.7 28.1 6 31.4 6 32.8 0.5 42.4 0.5 35.7 29.6 25.3 29.6 28.4 17.3 24.7 17.3 23.1 23.3 16.4 23.3 18.1 17.2 14.3 17.3 10.6 29.6 0.5 29.6 9.8 0.6 19.2 0.6 17.7 5.8" />
                    <polygon fill="url(#linearGradient-2)" points="55.7 0.6 49.9 29.7 39.6 29.7 46.1 0.6" />
                    <polygon fill="url(#linearGradient-1)" points="69.6 20.2 70.5 14.2 66.8 14.2 64.3 29.6 53.9 29.6 59.4 0.5 69 0.5 68.1 5.9 71.4 6 70.6 11.6 74.3 11.6 75.9 0.5 85.5 0.5 82.1 29.6 71.8 29.6 73.1 20.3" />
                    <polygon fill="url(#linearGradient-1)" points="111.1 23.6 110.8 29.6 86.1 29.6 89.2 0.5 112.1 0.5 111.8 5.6 98.4 5.6 97.9 11.6 111.6 11.6 111.3 17.2 97.4 17.2 97 23.5" />
                    <path d="M245.4,0.3 L247,5.5 L240.3,5.5 L240.3,5.7 C240.6,6.8 240.9,8 241.2,9.1 C241.5,10.3 241.9,11.5 242.2,12.7 C242.6,13.9 242.9,15.1 243.3,16.4 C243.7,17.6 244.1,18.9 244.4,20.1 C244.6,20.9 244.9,21.6 245.1,22.4 C245.3,23.2 245.6,24 245.8,24.7 C246,25.5 246.3,26.3 246.5,27.1 C246.7,27.9 247,28.7 247.2,29.5 L236.8,29.5 L230.2,5.5 L223.5,5.5 L222.2,0.3 L245.4,0.3 Z" fill="url(#linearGradient-1)" />
                    <polygon fill="url(#linearGradient-3)" points="221.4 11.4 222.8 17.2 208.8 17.2 211.4 29.5 201 29.5 195.7 0.4 218.7 0.4 219.9 5.5 206.4 5.5 207.6 11.4" />
                    <path d="M181.3,20.1 L182.6,29.5 L172.2,29.5 L169,0.4 L192,0.4 L197,29.6 L186.6,29.6 L185.2,20.2 L181.3,20.1 Z M188.1,8.7 L187.5,5 L183,5 L183.4,8.4 L179.8,8.4 L179.3,5 L174.9,5 L175.4,8.7 L179.4,8.7 L179.6,10.1 L177.6,10.1 L178.3,15.8 L180.7,15.8 L180.5,13.9 L184.1,13.9 L184.4,15.9 L186.9,15.9 L186,10.2 L184,10.2 L183.8,8.8 L188.1,8.7 L188.1,8.7 Z" fill="url(#linearGradient-4)" />
                    <path d="M163.3,14.5 L166.7,14.5 L168.2,29.6 L157.8,29.6 L156.9,17.3 L153,17.2 L153.8,29.6 L143.4,29.6 L142.3,0.5 L165.3,0.5 L166.4,11.3 L163,11.3 L163.3,14.5 Z M156.5,11.6 L156.1,5.6 L152.4,5.6 L152.8,11.6 L156.5,11.6 L156.5,11.6 Z" fill="url(#linearGradient-5)" />
                    <polygon fill="url(#linearGradient-6)" points="125.5 5.6 138.8 5.6 138.7 0.4 115.7 0.5 114.8 29.6 139.5 29.6 139.3 23.6 125.2 23.6" />
                </g>
                <path d="M4,31.6 C3.2,31.6 3,32.1 3.6,32.6 L10.8,39.5 C11.4,40.1 12.6,40.5 13.4,40.5 L19.6,40.5 C20.4,40.5 20.6,40 20.1,39.4 L13.8,32.7 C13.2,32.1 12.1,31.6 11.3,31.6 L4,31.6 L4,31.6 Z" id="Shape" fill="#29282A" />
                <path d="M28.8,31.6 C28,31.6 27.7,32.1 28.3,32.7 L33.9,39.3 C34.4,39.9 35.5,40.4 36.4,40.4 L42.9,40.4 C43.7,40.4 44,39.9 43.5,39.2 L38.6,32.7 C38.1,32 37,31.5 36.2,31.5 L28.8,31.6 Z" id="Shape" fill="#29282A" />
                <path d="M19.9,25.3 C19.1,25.3 18.8,25.8 19.4,26.4 L25.6,33.4 C26.1,34 27.1,34.5 27.7,34.5 C28.3,34.5 28.4,33.9 27.9,33.2 L27.6,32.8 C27.1,32.1 26.9,30.9 27.1,30.1 L27.1,29.9 C27.3,29.1 27.1,27.9 26.6,27.3 L26,26.4 C25.5,25.8 24.4,25.2 23.6,25.2 L19.9,25.3 Z" id="Shape" fill="#29282A" />
                <path d="M43.1,31.7 C42.3,31.7 42,32.2 42.5,32.9 L47.2,39.4 C47.7,40.1 48.8,40.6 49.6,40.6 L56,40.6 C56.8,40.6 57.1,40 56.7,39.3 L52.7,33 C52.3,32.3 51.2,31.7 50.4,31.7 L43.1,31.7 Z" id="Shape" fill="#29282A" />
                <path d="M57.4,31.6 C56.6,31.6 56.3,32.2 56.7,32.9 L60.5,39.2 C60.9,39.9 62,40.5 62.8,40.5 L69.1,40.5 C69.9,40.5 70.3,39.9 69.9,39.2 L66.9,33 C66.5,32.3 65.6,31.7 64.7,31.7 L57.4,31.6 Z" id="Shape" fill="#29282A" />
                <path d="M75.3,31.6 C74.5,31.6 74.1,32.2 74.4,33 L77.3,39.2 C77.6,39.9 78.6,40.6 79.4,40.6 L85.9,40.6 C86.7,40.6 87.2,40 86.9,39.2 L84.6,33 C84.3,32.2 83.4,31.6 82.6,31.6 L75.3,31.6 Z" id="Shape" fill="#29282A" />
                <path d="M89.6,31.6 C88.8,31.6 88.3,32.2 88.6,33 L90.7,38.9 C91,39.7 91.9,40.3 92.7,40.3 L112.5,40.3 C113.3,40.3 113.9,39.6 113.8,38.8 L113,33 C112.9,32.2 112.1,31.5 111.3,31.5 L89.6,31.6 Z" id="Shape" fill="#29282A" />
                <path d="M118.3,31.6 C117.5,31.6 116.9,32.3 117,33.1 L117.6,39.1 C117.7,39.9 118.4,40.6 119.3,40.6 L139,40.6 C139.8,40.6 140.6,39.9 140.7,39.1 L141.4,33.1 C141.5,32.3 140.9,31.6 140.1,31.6 L118.3,31.6 Z" id="Shape" fill="#29282A" />
                <path d="M147,31.6 C146.2,31.6 145.4,32.3 145.3,33.1 L144.6,39 C144.5,39.8 145.1,40.5 145.9,40.5 L152.3,40.5 C153.1,40.5 154,39.8 154.1,39 L155.5,33 C155.7,32.2 155.2,31.5 154.4,31.5 L147,31.6 Z" id="Shape" fill="#29282A" />
                <path d="M161.3,31.6 C160.5,31.6 159.6,32.3 159.5,33.1 L158.1,39 C157.9,39.8 158.4,40.5 159.3,40.5 L165.7,40.5 C166.5,40.5 167.4,39.9 167.7,39.1 L169.8,33.2 C170.1,32.4 169.6,31.8 168.8,31.8 L161.3,31.6 Z" id="Shape" fill="#29282A" />
                <path d="M175.7,31.5 C174.9,31.5 174,32.1 173.7,32.9 L171.6,39 C171.3,39.8 171.8,40.4 172.6,40.4 L179,40.4 C179.8,40.4 180.8,39.8 181.1,39 L184,32.8 C184.3,32.1 184,31.4 183.1,31.4 L175.7,31.5 Z" id="Shape" fill="#29282A" />
                <path d="M190.1,31.5 C189.3,31.5 188.3,32.1 187.9,32.8 L184.9,39 C184.5,39.7 184.9,40.3 185.7,40.3 L192.3,40.3 C193.1,40.3 194.1,39.7 194.5,39 L198.1,32.7 C198.5,32 198.2,31.4 197.4,31.4 L190.1,31.5 Z" id="Shape" fill="#29282A" />
                <path d="M204.5,31.5 C203.7,31.5 202.7,32.1 202.2,32.8 L198.3,39.1 C197.9,39.8 198.2,40.4 199,40.4 L205.5,40.4 C206.3,40.4 207.4,39.9 207.9,39.2 L212.5,32.7 C213,32 212.7,31.5 211.9,31.5 L204.5,31.5 Z" id="Shape" fill="#29282A" />
                <path d="M240.4,31.5 C239.6,31.5 238.5,32 237.9,32.6 L232.1,39.2 C231.6,39.8 231.8,40.3 232.6,40.3 L238.8,40.3 C239.6,40.3 240.8,39.8 241.4,39.3 L248.3,32.6 C248.9,32 248.7,31.6 247.9,31.6 L240.4,31.5 Z" id="Shape" fill="#29282A" />
                <g opacity="0.44" transform="translate(5.000000, 1.000000)" id="Shape" fill="#030303">
                    <g>
                        <path d="M5.1,6.4 C5,6.6 5.6,6.7 6.5,6.7 L13.3,6.7 C14.1,6.7 14.8,6.5 14.8,6.3 C14.8,6.1 14.1,5.9 13.3,5.9 L6.7,5.9 C5.9,6 5.2,6.2 5.1,6.4 Z" />
                        <path d="M4.5,21.3 C4.8,20.5 4.3,19.9 3.5,19.9 L2,19.9 C1.2,19.9 0.5,20 0.5,20.2 C0.5,20.4 1.2,20.5 2,20.5 L2.6,20.5 C3.4,20.5 3.9,21.1 3.6,21.9 L2.1,26.4 C1.8,27.2 2.3,27.8 3.1,27.8 L8.1,27.8 C8.9,27.8 9.6,27.7 9.6,27.5 C9.6,27.3 8.9,27.2 8.1,27.2 L3.9,27.2 C3.1,27.2 2.6,26.6 2.9,25.8 L2.9,25.7 C3.2,24.9 4,24.3 4.9,24.3 L8.7,24.3 C9.5,24.3 10.2,24.2 10.2,24 C10.2,23.8 9.5,23.7 8.7,23.7 L5.1,23.7 C4.3,23.7 3.8,23.1 4.1,22.3 L4.5,21.3 Z" />
                        <path d="M32.9,7.8 C33,7 32.5,6.3 31.6,6.3 L29.8,6.3 C29,6.3 28.2,6.4 28.2,6.6 C28.1,6.8 28.8,6.9 29.6,6.9 L30.9,6.9 C31.7,6.9 32.3,7.6 32.2,8.4 L32,10.3 C31.9,11.1 31.1,11.8 30.3,11.8 L24,11.8 C23.2,11.8 22.5,11.9 22.5,12.1 C22.5,12.3 23.2,12.4 24,12.4 L30.2,12.4 L31.9,12.4 L33.6,12.4 L36.6,12.4 C37.4,12.4 38.1,12.3 38.1,12.1 C38.1,11.9 37.4,11.8 36.6,11.8 L33.9,11.8 C33.1,11.8 32.5,11.1 32.6,10.3 L32.9,7.8 Z" />
                        <path d="M41.9,27.2 C42,26.4 42,26 41.7,26.4 C41.5,26.8 41.1,27.8 41,28.6 L40.8,29.4 C40.6,30.2 40.9,31.4 41.4,32.1 L41.6,32.4 C42.1,33.1 42.8,33.9 43.2,34.2 C43.6,34.5 43.6,34.2 43.1,33.5 L42.1,32 C41.6,31.3 41.4,30.1 41.5,29.3 L41.9,27.2 Z" />
                        <path d="M52.1,7.4 C52.1,7.2 51.4,7.1 50.6,7.1 L48.2,7.1 C47.4,7.1 47,7.2 47.4,7.4 C47.8,7.5 48.8,7.7 49.6,7.7 L50.6,7.7 C51.4,7.7 52.1,7.6 52.1,7.4 Z" />
                        <path d="M56,28.7 C56.2,27.9 56.1,27.6 55.9,28 C55.6,28.4 55.3,29.1 55.2,29.7 C55.1,30.2 55.2,31.2 55.4,31.8 C55.6,32.4 56.1,33.2 56.3,33.6 C56.6,33.9 56.6,33.6 56.3,32.8 L56.1,32 C55.8,31.2 55.8,29.9 56,29.1 L56,28.7 Z" />
                        <path d="M53.6,21.2 C52.8,21.2 52.1,21.3 52.1,21.4 C52.1,21.5 52.8,21.7 53.6,21.8 L60.9,22.2 C61.7,22.2 62.6,22.6 62.8,22.9 C63,23.3 63.4,23.5 63.5,23.4 C63.6,23.3 63.5,22.9 63.2,22.4 C62.9,22 62,21.6 61.2,21.5 L53.6,21.2 Z" />
                        <path d="M61.5,6.4 C61.8,6.6 62.7,6.8 63.5,6.8 L63.8,6.8 C64.6,6.8 65.3,6.7 65.3,6.5 C65.3,6.3 64.6,6.2 63.8,6.1 L62.4,6.1 C61.6,6.1 61.2,6.2 61.5,6.4 Z" />
                        <path d="M70.7,21.4 C69.9,21.4 69.2,21.6 69.2,21.8 C69.2,22 69.9,22.1 70.7,22.1 L74.8,21.9 C75.6,21.9 76.2,22.5 76.1,23.3 L75.2,29.1 C75.1,29.9 75.2,31.2 75.4,32 L75.5,32.4 C75.7,33.2 76.2,34.2 76.5,34.6 C76.8,35 76.9,34.8 76.6,34 L76,32 C75.8,31.2 75.7,29.9 75.8,29.1 L76.8,22.7 C76.9,21.9 76.4,21.2 75.5,21.3 L70.7,21.4 Z" />
                        <path d="M72.1,6.3 C72.1,6.5 72.7,6.7 73.5,6.9 L80.7,7.7 C81.5,7.8 82.2,7.7 82.2,7.6 C82.2,7.4 81.5,7.2 80.7,7.1 L73.6,6.3 C72.8,6.1 72.1,6.1 72.1,6.3 Z" />
                        <path d="M88.4,25.5 C88.4,24.7 87.8,24 87,24 L84.6,24 C83.8,24 83.1,24.1 83.1,24.3 C83.1,24.5 83.8,24.6 84.6,24.6 L86.3,24.6 C87.1,24.6 87.8,25.3 87.7,26.1 L87.6,29 C87.6,29.8 87.7,31.1 87.9,31.9 L88.3,33.6 C88.5,34.4 88.9,35.4 89.1,35.8 C89.3,36.2 89.4,35.9 89.2,35.1 L88.5,31.8 C88.3,31 88.2,29.7 88.2,28.8 L88.4,25.5 Z" />
                        <path d="M84.6,10 C84.6,10.2 85.3,10.3 86.1,10.3 L88.4,10.3 C89.2,10.3 90.2,10.1 90.6,9.9 C91,9.7 90.6,9.5 89.8,9.6 L86.1,9.7 C85.3,9.6 84.6,9.8 84.6,10 Z" />
                        <path d="M102.1,13.4 C102.1,12.6 101.9,11.9 101.7,11.9 C101.5,11.9 101.4,12.6 101.4,13.4 L101.4,16.2 C101.4,17 101.6,17.3 101.8,16.9 C102,16.5 102.2,15.4 102.1,14.6 L102.1,13.4 Z" />
                        <path d="M105.2,24.7 C105.2,25.5 104.5,26.1 103.7,26.1 L101.9,26.1 C101.1,26.1 100.4,26.8 100.4,27.6 L100.4,29.4 C100.4,30.2 100.5,30.9 100.7,30.9 C100.9,30.9 101,30.2 101,29.4 L101,28.3 C101,27.5 101.7,26.8 102.5,26.8 L104.3,26.8 C105.1,26.8 105.8,26.1 105.8,25.3 L105.8,24.9 C105.8,24.1 105.7,23.4 105.5,23.4 C105.4,23.4 105.2,24 105.2,24.7 Z" />
                        <path d="M131.2,26.2 C131.1,26.5 131,27.4 131.1,28.2 L131.2,29.2 C131.3,30 131.3,31.4 131.2,32.2 L130.3,38.4 C130.2,39.2 130.3,39.9 130.5,39.9 C130.7,39.9 131,39.2 131.1,38.4 L131.9,32.3 C132,31.5 132,30.1 131.9,29.3 L131.7,27.3 C131.5,26.3 131.3,25.9 131.2,26.2 Z" />
                        <path d="M112.1,36.2 C112.1,36.4 112.8,36.5 113.6,36.5 L113.7,36.5 C114.5,36.5 115.2,36.4 115.2,36.2 C115.2,36 114.5,35.9 113.7,35.9 L113.6,35.9 C112.8,35.8 112.1,36 112.1,36.2 Z" />
                        <path d="M114.5,10.8 C114.8,11 115.8,11.3 116.6,11.4 L121.6,12.2 C122.4,12.5 123,12.7 123.1,12.5 C123.2,12.3 122.6,12 121.8,11.7 L115.4,10.6 C114.6,10.6 114.2,10.6 114.5,10.8 Z" />
                        <path d="M114.4,16.7 C114.7,16.5 114.3,16.4 113.5,16.4 C112.7,16.4 112,16.6 112,16.8 C112,17 112.4,17.1 112.9,17.1 C113.4,17.1 114.1,16.9 114.4,16.7 Z" />
                        <path d="M143.9,11.1 C143.9,11.5 144.7,11.8 145.5,11.8 L145.8,11.8 C146.6,11.8 147.4,11.8 147.5,11.9 C147.6,11.9 148,12.2 148.2,12.1 C148.4,12 148.2,11.8 148,11.5 C147.7,11.3 146.8,11.1 146,11.1 C145.2,11.1 144.5,10.4 144.4,9.6 L143.6,2.4 C143.5,1.6 143.3,0.9 143.1,0.9 C142.9,0.9 142.9,1.6 143,2.4 L143.6,8.1 C143.7,8.9 143.1,9.6 142.3,9.6 L140.4,9.6 C139.6,9.6 138.9,9.7 138.9,9.9 C138.9,10.1 139.6,10.2 140.4,10.2 L142.3,10.2 C143.2,10.4 143.9,10.7 143.9,11.1 Z" />
                        <path d="M143,25.9 C143.1,26.7 142.8,27.9 142.4,28.6 C142,29.3 141.7,30.5 141.9,30.6 C142.1,30.7 142.4,30.1 142.6,29.3 C142.8,28.6 143.5,27.9 143.6,27.9 C143.7,27.9 143.7,27.2 143.7,26.4 L143.5,23.3 C143.4,22.5 144.1,21.8 144.9,21.8 L149.7,21.8 C150.5,21.8 151.2,21.7 151.2,21.5 C151.2,21.3 150.5,21.2 149.7,21.2 L144.2,21.2 C143.4,21.2 142.7,21.9 142.8,22.7 L143,25.9 Z" />
                        <path d="M153.7,23.4 C153.7,23.6 154.4,23.7 155.2,23.7 L158.3,23.7 C159.1,23.7 160.1,23.6 160.4,23.4 C160.7,23.2 160.3,23.1 159.5,23.1 L155.2,23.1 C154.4,23.1 153.7,23.2 153.7,23.4 Z" />
                        <path d="M156.6,14.4 C156.8,14.6 157.6,14.7 158.4,14.7 L159.1,14.7 C159.9,14.7 160.6,14.6 160.6,14.4 C160.6,14.2 159.9,14.1 159.1,14.1 L157.7,14.1 C157,14.1 156.5,14.3 156.6,14.4 Z" />
                        <path d="M139.2,36.7 C139.2,36.9 139.8,37.1 140.7,37.1 L148,37.6 C148.8,37.7 149.5,37.6 149.5,37.4 C149.5,37.2 148.9,37 148,37 L140.7,36.5 C139.9,36.4 139.3,36.5 139.2,36.7 Z" />
                        <path d="M183.4,23.1 C182.6,23.1 181.9,23.3 181.9,23.4 C181.9,23.6 182.6,23.7 183.4,23.7 L192.3,24.7 C193.1,24.8 193.8,24.7 193.9,24.5 C194,24.3 193.3,24.1 192.5,24.1 L183.4,23.1 Z" />
                        <path d="M212,11.4 C211.8,11.5 211.7,12.2 211.8,13 C211.8,13 213,16.4 212.6,17.1 C212.2,17.8 212.1,18.4 212.3,18.5 C212.5,18.6 212.9,18 213.2,17.3 L212.3,12.8 C212.3,12 212.2,11.4 212,11.4 Z" />
                        <path d="M207.1,3.5 C206.4,3.5 205.7,2.9 205.5,2.2 C205.3,1.5 205,1 204.8,1.1 C204.6,1.2 204.7,1.8 204.9,2.6 L204.9,2.7 C205.1,3.5 205.9,4.1 206.6,4.1 C207.3,4.1 208,4.7 208.3,5.5 L208.5,6.2 C208.8,7 209.1,7.6 209.3,7.5 C209.5,7.4 209.4,6.8 209.1,6 L208.7,4.9 C208.6,4.2 207.8,3.5 207.1,3.5 Z" />
                        <path d="M232.3,21.9 C231.5,21.9 230.8,22 230.8,22.2 C230.8,22.4 231.5,22.5 232.3,22.5 L240.7,22.5 C241.5,22.5 242.2,22.4 242.2,22.2 C242.2,22 241.5,21.9 240.7,21.9 L232.3,21.9 Z" />
                        <path d="M238.7,7 C238.9,7 238.8,6.3 238.6,5.5 L237.8,2.6 C237.6,1.8 237.3,1.2 237.1,1.2 C236.9,1.2 237,1.9 237.2,2.7 L238,5.6 C238.3,6.4 238.6,7 238.7,7 Z" />
                    </g>
                </g>
                <path d="M33,7.8 L35.7,7.8 C36.5,7.8 36.5,7.7 35.7,7.5 L35,7.4 C34.2,7.2 33.6,7.4 33.6,7.7 C33.6,7.7 33.6,7.7 33,7.8 Z" id="Shape" fill="#030303" />
                <path d="M17.1,35.9 C16.8,35.6 15.9,35.4 15.1,35.5 L13.7,35.7 C12.9,35.8 12.9,36 13.7,36.1 L16.1,36.4 C16.9,36.4 17.4,36.3 17.1,35.9 Z" id="Shape" fill="#030303" />
                <path d="M44,39.4 C43.8,39.1 43,38.9 42.1,38.9 L38.9,39.2 C38.1,39.3 38.1,39.4 38.9,39.5 L42.9,39.9 C43.7,39.9 44.2,39.7 44,39.4 Z" id="Shape" fill="#030303" />
                <path d="M76.5,38.1 C76.4,37.8 77,37.6 77.8,37.6 L78.4,37.6 C79.2,37.6 79.2,37.8 78.5,38.1 L78.1,38.2 C77.3,38.4 76.6,38.4 76.5,38.1 Z" id="Shape" fill="#030303" />
                <path d="M113.7,36 C113.6,35.6 112.9,35.3 112.1,35.4 L109.9,35.7 C109.1,35.8 109.1,36 109.9,36.1 L112.3,36.5 C113.2,36.7 113.8,36.5 113.7,36 Z" id="Shape" fill="#030303" />
                <path d="M116.8,37.6 C116.8,37.2 117.4,36.9 118.1,37 C118.9,37.1 118.9,37.4 118.2,37.8 C117.5,38.2 116.9,38 116.8,37.6 Z" id="Shape" fill="#030303" />
                <path d="M93.3,30.3 C93.2,29.7 93,29.6 92.9,30.2 C92.8,30.8 92.9,31.9 93.1,32.7 L93.2,33 C93.4,33.8 93.6,33.8 93.5,33 C93.5,32.1 93.4,30.9 93.3,30.3 Z" id="Shape" fill="#030303" />
                <path d="M105.6,30.8 C105.5,30.5 105.4,31 105.4,31.8 L105.4,31.9 C105.4,32.7 105.5,32.9 105.7,32.3 C105.8,31.7 105.8,31 105.6,30.8 Z" id="Shape" fill="#030303" />
                <path d="M80.6,30.5 C80.6,29.9 80.5,29.9 80.3,30.5 C80.2,31.1 80.3,32.3 80.6,33.1 L80.7,33.4 C81,34.2 81.1,34.2 80.9,33.3 L80.9,33.1 C80.8,32.3 80.6,31.1 80.6,30.5 Z" id="Shape" fill="#030303" />
                <path d="M60.5,31 C60.4,30.7 60.2,30.8 60.1,31.1 C60,31.4 60.1,32 60.4,32.4 C60.7,32.8 60.9,32.8 60.8,32.3 C60.7,31.8 60.6,31.2 60.5,31 Z" id="Shape" fill="#030303" />
                <path d="M46.4,30.5 C46.3,29.9 46,29.9 45.8,30.7 C45.6,31.4 45.9,32.4 46.4,33 C46.9,33.5 47.2,33.5 47,32.8 C46.9,32.2 46.6,31.2 46.4,30.5 Z" id="Shape" fill="#030303" />
                <path d="M21.1,29.6 C20.9,29.3 21.4,29.2 22.2,29.3 L24.1,29.5 C24.9,29.6 24.9,29.7 24.1,29.8 L23,29.9 C22.2,30 21.3,29.9 21.1,29.6 Z" id="Shape" fill="#030303" />
                <path d="M136.3,30.2 C136.4,29.4 136.7,29.4 136.8,30.2 L136.8,30.2 C137,31 136.9,32.3 136.7,33.1 L136.5,33.8 C136.3,34.6 136.1,34.6 136.1,33.8 L136.1,33.2 C136.1,32.3 136.2,31 136.3,30.2 Z" id="Shape" fill="#030303" />
                <path d="M127.9,13.8 C127.9,14.1 127.3,14 126.7,13.5 L126.5,13.4 C125.8,12.9 125.9,12.7 126.6,12.9 C127.3,13 127.9,13.4 127.9,13.8 Z" id="Shape" fill="#030303" />
                <path d="M169.1,35.2 C169.2,34.9 168.6,34.7 167.8,34.7 L167.1,34.7 C166.3,34.7 166.3,34.9 167,35.1 L167.5,35.2 C168.3,35.6 169,35.5 169.1,35.2 Z" id="Shape" fill="#030303" />
                <path d="M163.8,30.8 C163.6,30.4 163.5,30.6 163.5,31.4 C163.5,32.2 163.7,32.5 163.9,32.2 C164.1,31.8 164,31.2 163.8,30.8 Z" id="Shape" fill="#030303" />
                <path d="M182.6,36.6 C182.7,36.3 182.1,36.1 181.3,36.1 L179,36.3 C178.2,36.4 178.2,36.5 179,36.6 L180.9,36.9 C181.7,37.1 182.5,36.9 182.6,36.6 Z" id="Shape" fill="#030303" />
                <path d="M179.9,30.9 C179.8,30.6 179.6,30.5 179.5,30.8 C179.4,31.1 179.4,31.8 179.6,32.4 C179.7,33 179.9,33 180,32.5 C180.1,32 180.1,31.3 179.9,30.9 Z" id="Shape" fill="#030303" />
                <path d="M217.4,19.7 C217.1,19.6 217.2,19 217.5,18.3 C217.8,17.6 218,17.7 218,18.5 C218,19.3 217.6,19.8 217.4,19.7 Z" id="Shape" fill="#030303" />
                <path d="M199.6,35.8 C199.9,35.5 200.7,35.3 201.6,35.4 L205,36 C205.8,36.1 205.8,36.2 205,36.3 L200.7,36.4 C199.8,36.4 199.4,36.2 199.6,35.8 Z" id="Shape" fill="#030303" />
                <path d="M234.3,35.8 C234.6,35.4 235.5,35.1 236.4,35.3 L239.5,35.9 C240.3,36.1 240.3,36.2 239.5,36.3 L235.3,36.5 C234.4,36.6 234,36.3 234.3,35.8 Z" id="Shape" fill="#030303" />
                <path d="M235.7,23.2 C235.6,22.7 236.1,22.4 236.9,22.5 L239.6,22.9 C240.4,23 240.4,23.2 239.6,23.4 L237.4,23.8 C236.6,23.9 235.8,23.6 235.7,23.2 Z" id="Shape" fill="#030303" />
                <g opacity="0.5" transform="translate(231.000000, 6.000000)" id="Shape" fill="#030303">
                    <path d="M1.1,2.5 C0.9,2.3 0.7,1.5 0.6,0.7 C0.5,-0.1 0.7,-0.1 0.9,0.7 L1.1,1.4 C1.4,2.2 1.4,2.7 1.1,2.5 Z" />
                </g>
                <path d="M198.5,26.2 L196.7,25.5 C195.9,25.2 196,25 196.8,25.1 L198.7,25.3" id="Shape" fill="#030303" />
                <g opacity="0.5" transform="translate(121.000000, 30.000000)" id="Shape" fill="#030303">
                    <path d="M5,2.3 C5.1,1.9 5.1,1.3 5,0.9 C4.9,0.5 4.1,0.2 3.2,0.2 L2.7,0.2 C1.9,0.2 1,0.6 0.7,1 C0.4,1.4 0.9,2 1.7,2.2 L3.3,2.6 C4.1,2.8 4.9,2.7 5,2.3 Z" />
                </g>
                <path d="M124.8,31.2 C124.3,30.7 124.3,30.2 124.9,30.2 C125.4,30.2 126.1,30.5 126.3,30.8 C126.6,31.1 126.4,32 126,32.6 C125.6,33.3 125.3,33.5 125.5,33 C125.5,32.6 125.2,31.8 124.8,31.2 Z" id="Shape" fill="#030303" />
                <path d="M77,7.5 C77.1,7.1 77.8,6.9 78.6,7.1 L78.7,7.1 C79.5,7.3 79.5,7.6 78.7,7.8 L78.4,7.9 C77.5,8.1 76.9,7.9 77,7.5 Z" id="Shape" fill="#030303" />
                <path d="M42.8,13.2 C42.7,13.5 41.9,13.5 41.1,13.3 L40.9,13.3 C40.1,13.1 40.1,12.9 40.9,12.9 L41.5,12.9 C42.4,12.8 42.9,13 42.8,13.2 Z" id="Shape" fill="#030303" />
                <path d="M15.3,24.9 C15.4,24.6 14.9,24.4 14,24.6 L13.1,24.8 C12.3,25 12.3,25.2 13.1,25.3 L13.5,25.4 C14.4,25.4 15.2,25.2 15.3,24.9 Z" id="Shape" fill="#030303" />
                <path d="M17.4,36 C17.2,35.7 17.2,34.9 17.4,34.1 L17.6,33.4 C17.8,32.6 18,32.6 18,33.5 L17.9,35 C17.8,35.8 17.6,36.3 17.4,36 Z" id="Shape" fill="#29282A" />
                <path d="M43.8,39.5 C43.6,39.4 43.6,38.7 43.8,38.1 C44,37.5 44.2,37.6 44.2,38.4 C44.2,39.2 44,39.7 43.8,39.5 Z" id="Shape" fill="#29282A" />
                <path d="M67.6,23.6 C67.6,23.1 67.8,23.4 68.1,24.1 L68.2,24.3 C68.5,25.1 68.5,25.4 68.2,25.1 C67.9,24.8 67.6,24.1 67.6,23.6 Z" id="Shape" fill="#29282A" />
                <path d="M200,36.3 C200.3,36.1 200.3,35.3 200.1,34.5 L199.9,33.7 C199.7,32.9 199.5,32.9 199.5,33.8 L199.5,35.2 C199.5,36 199.7,36.5 200,36.3 Z" id="Shape" fill="#29282A" />
                <path d="M234.8,36 C235.2,35.8 235.2,35 234.9,34.3 L233.6,31.5 C233.3,30.8 233.1,30.8 233.2,31.6 L233.8,34.9 C234,35.7 234.4,36.2 234.8,36 Z" id="Shape" fill="#29282A" />
                <path d="M236.3,23.1 C236.2,22.8 235.7,23.2 235.4,23.9 L234.1,26.6 C233.7,27.3 233.8,27.4 234.3,26.7 L235.7,24.8 C236.2,24.2 236.4,23.4 236.3,23.1 Z" id="Shape" fill="#29282A" />
                <path d="M213.6,8.6 L213.7,7 C213.7,6.2 213.9,6.2 214.1,7 L214.6,8.8" id="Shape" fill="#030303" />
                <path d="M12.4,36.8 C11.7,36.6 11.8,36.5 12.5,36.5 C13.2,36.6 14.3,36.7 14.9,36.8 C15.5,36.9 15.4,37 14.8,37.1 C14.1,37.1 13,37 12.4,36.8 Z" id="Shape" fill="#5A5558" />
                <path d="M45.9,33.1 C45.3,32.5 45.3,32.6 45.8,33.3 L46.2,33.8 C46.7,34.5 47.4,35.2 47.8,35.5 C48.2,35.8 48.2,35.5 47.7,35 C47.2,34.5 46.4,33.6 45.9,33.1 Z" id="Shape" fill="#5A5558" />
                <path d="M59.4,31.6 C59.2,31.6 59.3,32.1 59.6,32.7 C59.9,33.3 60,33.3 59.9,32.7 C59.8,32.1 59.6,31.6 59.4,31.6 Z" id="Shape" fill="#5A5558" />
                <path d="M78.9,38.3 C78.3,38.2 78.5,38.1 79.3,37.9 L79.8,37.8 C80.6,37.7 81,37.7 80.6,38 C80.2,38.2 79.4,38.4 78.9,38.3 Z" id="Shape" fill="#5A5558" />
                <path d="M92.4,32.7 C92.1,32.3 92,32.6 92.2,33.2 C92.3,33.9 92.7,34.9 93,35.5 C93.3,36.1 93.4,35.9 93.2,35.1 L93.1,34.8 C93.1,34 92.7,33 92.4,32.7 Z" id="Shape" fill="#5A5558" />
                <path d="M137.3,33.8 C137.2,33.4 137,33.4 136.8,34 C136.6,34.6 136.5,35.5 136.5,36.2 C136.5,36.9 136.7,36.8 137,36 L137,36 C137.3,35.3 137.4,34.3 137.3,33.8 Z" id="Shape" fill="#5A5558" />
                <path d="M122.4,30.9 C122.3,30.5 121.9,30.5 121.7,31.1 C121.4,31.6 121.8,32.3 122.5,32.7 C123.2,33.1 123.5,33 123.2,32.5 C122.9,32.1 122.5,31.4 122.4,30.9 Z" id="Shape" fill="#5A5558" />
                <path d="M147.5,38.5 C146.8,38.3 147,38.2 147.8,38.2 C148.6,38.2 149.8,38.4 150.5,38.6 C151.2,38.8 151,39 150.2,38.9 C149.3,38.9 148.1,38.7 147.5,38.5 Z" id="Shape" fill="#5A5558" />
                <path d="M164.4,32.7 C164.3,32.4 164.1,32.7 163.9,33.2 C163.7,33.7 163.7,34 164,33.7 C164.3,33.4 164.5,32.9 164.4,32.7 Z" id="Shape" fill="#5A5558" />
                <path d="M180.7,32.1 C180.6,31.8 180.4,32.1 180.2,32.6 C180,33.2 180,33.4 180.3,33.1 C180.6,32.8 180.8,32.3 180.7,32.1 Z" id="Shape" fill="#5A5558" />
                <path d="M178.1,37 C177.3,36.9 177.4,36.7 178.2,36.6 L178.5,36.6 C179.3,36.5 180.3,36.6 180.7,36.9 C181.1,37.1 181,37.3 180.4,37.3 C179.9,37.3 178.9,37.1 178.1,37 Z" id="Shape" fill="#5A5558" />
                <path d="M202.1,36.9 C201.4,37 201.4,36.8 202.1,36.6 C202.8,36.4 204,36.3 204.8,36.4 L205.5,36.5 C206.3,36.6 206.3,36.7 205.5,36.7 L204.8,36.7 C204,36.8 202.7,36.9 202.1,36.9 Z" id="Shape" fill="#5A5558" />
                <path d="M217.5,19.9 C217.2,20 216.6,20.7 216.3,21.4 C216,22.1 216.2,22.1 216.7,21.5 L217.2,20.8 C217.8,20.2 217.9,19.7 217.5,19.9 Z" id="Shape" fill="#29282A" />
                <path d="M243.8,8.3 C243.5,8.3 243.2,7.6 243.1,6.8 L243.1,6.5 C243,5.7 243.2,5.6 243.6,6.4 L243.8,6.9 C244.1,7.7 244.1,8.3 243.8,8.3 Z" id="Shape" fill="#030303" />
                <path d="M144,11.3 C144,10.9 144.6,10.6 145.4,10.7 L145.6,10.7 C146.4,10.7 146.5,11 145.7,11.3 L145.4,11.4 C144.7,11.8 144,11.7 144,11.3 Z" id="Shape" fill="#030303" />
                <path d="M106.9,12.7 C106.6,12.6 106.5,13.1 106.6,13.9 L106.6,14.2 C106.7,15 106.9,15.1 107.1,14.3 C107.2,13.6 107.1,12.8 106.9,12.7 Z" id="Shape" fill="#030303" />
                <path d="M73.6,23 C73.5,22.7 74.1,22.5 74.9,22.5 L77.5,22.5 C78.3,22.5 78.3,22.6 77.5,22.8 L75.2,23.3 C74.5,23.4 73.7,23.3 73.6,23 Z" id="Shape" fill="#030303" />
                <path d="M14.7,28.8 C14.7,28.6 14.1,28.4 13.3,28.4 L12.9,28.4 C12.1,28.4 12.1,28.6 12.9,28.8 L13.2,28.9 C13.9,29 14.6,29 14.7,28.8 Z" id="Shape" fill="#030303" />
                <path d="M4.3,31.2 C3.5,31.2 2.9,31.3 3.1,31.5 C3.2,31.6 4,31.8 4.9,31.8 L10.1,31.8 C10.9,31.8 11.7,31.7 11.9,31.5 C12.1,31.3 11.5,31.2 10.7,31.2 L4.3,31.2 Z" id="Shape" fill="#E0DBD6" />
                <path d="M29.3,31.2 C28.5,31.2 27.9,31.3 28.1,31.5 C28.2,31.6 29,31.8 29.9,31.8 L35.1,31.8 C35.9,31.8 36.7,31.7 36.9,31.5 C37,31.3 36.5,31.2 35.7,31.2 L29.3,31.2 Z" id="Shape" fill="#E0DBD6" />
                <path d="M43.4,31.1 C42.6,31.1 41.9,31.3 42,31.4 C42,31.5 42.7,31.7 43.5,31.7 C44.3,31.7 44.9,31.6 45,31.4 C45,31.2 44.4,31.1 43.6,31.1 L43.4,31.1 Z" id="Shape" fill="#E0DBD6" />
                <path d="M18.3,18.8 C17.5,18.8 16.8,19 16.9,19.1 C16.9,19.2 17.6,19.4 18.4,19.4 C19.2,19.4 19.8,19.3 19.9,19.1 C19.9,18.9 19.3,18.8 18.5,18.8 L18.3,18.8 Z" id="Shape" fill="#E0DBD6" />
                <path d="M28.7,18.8 C27.9,18.8 27.2,19 27.3,19.1 C27.3,19.2 28,19.4 28.8,19.4 C29.6,19.4 30.2,19.3 30.3,19.1 C30.4,18.9 29.7,18.8 28.9,18.8 L28.7,18.8 Z" id="Shape" fill="#E0DBD6" />
                <path d="M7.9,20.5 C7.1,20.5 6.5,20.7 6.6,20.8 C6.6,20.9 7.2,21.1 7.9,21.1 C8.6,21.1 9.2,21 9.2,20.8 C9.2,20.6 8.6,20.5 7.9,20.5 Z" id="Shape" fill="#E0DBD6" />
                <path d="M20.4,24.7 C19.6,24.7 19,24.8 19.1,25 C19.2,25.1 19.9,25.3 20.8,25.3 L23,25.3 C23.8,25.3 24.6,25.2 24.7,25 C24.8,24.8 24.2,24.7 23.4,24.7 L20.4,24.7 Z" id="Shape" fill="#E0DBD6" />
                <path d="M14.7,6.7 C13.9,6.7 13.3,6.8 13.4,7 C13.5,7.2 14.2,7.3 15.1,7.3 L17.3,7.3 C18.1,7.3 18.9,7.2 19,7 C19.1,6.8 18.5,6.7 17.7,6.7 L14.7,6.7 Z" id="Shape" fill="#E0DBD6" />
                <path d="M57.8,31.1 C57,31.1 56.3,31.3 56.4,31.4 C56.5,31.5 57.1,31.7 57.9,31.7 C58.7,31.7 59.3,31.6 59.4,31.4 C59.4,31.2 58.8,31.1 58,31.1 L57.8,31.1 Z" id="Shape" fill="#E0DBD6" />
                <path d="M82.4,31.1 C81.6,31.1 81,31.3 81.1,31.4 C81.1,31.5 81.7,31.7 82.4,31.7 C83.1,31.7 83.7,31.6 83.7,31.4 C83.8,31.2 83.2,31.1 82.4,31.1 Z" id="Shape" fill="#E0DBD6" />
                <path d="M62.4,31.1 C61.6,31.1 61,31.2 61,31.4 C61.1,31.5 61.8,31.7 62.6,31.7 L64.2,31.7 C65,31.7 65.8,31.6 65.8,31.4 C65.9,31.2 65.3,31.1 64.4,31.1 L62.4,31.1 Z" id="Shape" fill="#E0DBD6" />
                <path d="M75.5,31.1 C74.7,31.1 74.1,31.2 74.2,31.4 C74.3,31.5 75,31.7 75.9,31.7 L78,31.7 C78.8,31.7 79.6,31.6 79.7,31.4 C79.8,31.2 79.2,31.1 78.4,31.1 L75.5,31.1 Z" id="Shape" fill="#E0DBD6" />
                <path d="M89.9,31.1 C89.1,31.1 88.5,31.3 88.5,31.4 C88.5,31.5 89.3,31.7 90.1,31.7 L90.8,31.7 C91.6,31.7 92.4,31.6 92.4,31.4 C92.5,31.2 91.8,31.1 91,31.1 L89.9,31.1 Z" id="Shape" fill="#E0DBD6" />
                <path d="M118.5,31.1 C117.7,31.1 117.1,31.3 117.1,31.4 C117.2,31.5 117.9,31.7 118.7,31.7 L119.4,31.7 C120.2,31.7 121,31.6 121,31.4 C121.1,31.2 120.4,31.1 119.6,31.1 L118.5,31.1 Z" id="Shape" fill="#E0DBD6" />
                <path d="M138.9,31.1 C138.1,31.1 137.5,31.3 137.5,31.4 C137.6,31.5 138.3,31.7 139.1,31.7 L139.4,31.7 C140.2,31.7 140.9,31.6 141,31.4 C141.1,31.2 140.4,31.1 139.6,31.1 L138.9,31.1 Z" id="Shape" fill="#E0DBD6" />
                <path d="M149,31.1 C148.2,31.1 147.6,31.2 147.7,31.4 C147.8,31.5 148.6,31.7 149.4,31.7 L153.5,31.7 C154.3,31.7 155.1,31.6 155.2,31.4 C155.3,31.2 154.8,31.1 153.9,31.1 L149,31.1 Z" id="Shape" fill="#E0DBD6" />
                <path d="M161.5,31.1 C160.7,31.1 160,31.3 160.1,31.4 C160.2,31.5 160.9,31.7 161.7,31.7 C162.5,31.7 163.2,31.6 163.3,31.4 C163.4,31.2 162.7,31.1 161.9,31.1 L161.5,31.1 Z" id="Shape" fill="#E0DBD6" />
                <path d="M166,31.1 C165.2,31.1 164.6,31.2 164.7,31.4 C164.8,31.6 165.5,31.7 166.3,31.7 L167.9,31.7 C168.7,31.7 169.5,31.6 169.5,31.4 C169.6,31.2 169,31.1 168.2,31.1 L166,31.1 Z" id="Shape" fill="#E0DBD6" />
                <path d="M176,31.1 C175.2,31.1 174.6,31.3 174.6,31.4 C174.6,31.5 175.4,31.7 176.2,31.7 L177.1,31.7 C177.9,31.7 178.7,31.6 178.7,31.4 C178.8,31.2 178.2,31.1 177.3,31.1 L176,31.1 Z" id="Shape" fill="#E0DBD6" />
                <path d="M182,31.1 C181.2,31.1 180.6,31.3 180.6,31.4 C180.7,31.5 181.4,31.7 182.2,31.7 L182.4,31.7 C183.2,31.7 183.9,31.6 184,31.4 C184.1,31.2 183.4,31.1 182.6,31.1 L182,31.1 Z" id="Shape" fill="#E0DBD6" />
                <path d="M190.4,31.1 C189.6,31.1 189,31.2 189.2,31.4 C189.4,31.6 190.2,31.7 191,31.7 L196.8,31.7 C197.6,31.7 198.4,31.6 198.6,31.4 C198.8,31.2 198.2,31.1 197.4,31.1 L190.4,31.1 Z" id="Shape" fill="#E0DBD6" />
                <path d="M204.6,31.1 C203.8,31.1 203.2,31.2 203.4,31.4 C203.6,31.5 204.4,31.7 205.2,31.7 L211,31.7 C211.8,31.7 212.6,31.6 212.8,31.4 C213,31.2 212.4,31.1 211.6,31.1 L204.6,31.1 Z" id="Shape" fill="#E0DBD6" />
                <path d="M240.7,31.1 C239.9,31.1 239.3,31.2 239.5,31.4 C239.7,31.5 240.5,31.7 241.3,31.7 L247.1,31.7 C247.9,31.7 248.7,31.6 248.9,31.4 C249.1,31.2 248.5,31.1 247.7,31.1 L240.7,31.1 Z" id="Shape" fill="#E0DBD6" />
                <path d="M227.4,7.1 C226.6,7.1 226,7.2 226.1,7.4 C226.2,7.5 226.9,7.7 227.8,7.7 L229.8,7.7 C230.6,7.7 231.4,7.6 231.5,7.4 C231.6,7.2 231,7.1 230.2,7.1 L227.4,7.1 Z" id="Shape" fill="#E0DBD6" />
                <path d="M216.2,7.1 C215.4,7.1 214.8,7.2 214.9,7.4 C215,7.6 215.8,7.7 216.6,7.7 L219.3,7.7 C220.1,7.7 220.9,7.6 221,7.4 C221.1,7.2 220.5,7.1 219.7,7.1 L216.2,7.1 Z" id="Shape" fill="#E0DBD6" />
                <path d="M210.5,7.1 C209.7,7.1 209.1,7.3 209.1,7.4 C209.2,7.5 209.9,7.7 210.7,7.7 L211.7,7.7 C212.5,7.7 213.3,7.6 213.3,7.4 C213.4,7.2 212.8,7.1 211.9,7.1 L210.5,7.1 Z" id="Shape" fill="#E0DBD6" />
                <path d="M212.4,18.8 C211.6,18.8 211,18.9 211.1,19.1 C211.2,19.2 211.9,19.4 212.8,19.4 L214.9,19.4 C215.7,19.4 216.5,19.3 216.6,19.1 C216.7,18.9 216.1,18.8 215.3,18.8 L212.4,18.8 Z" id="Shape" fill="#E0DBD6" />
                <path d="M177.6,6.3 C176.8,6.3 176.2,6.5 176.2,6.6 C176.2,6.7 177,6.9 177.8,6.9 L178.8,6.9 C179.6,6.9 180.4,6.8 180.4,6.6 C180.5,6.4 179.9,6.3 179,6.3 L177.6,6.3 Z" id="Shape" fill="#E0DBD6" />
                <path d="M185.7,6.3 C184.9,6.3 184.3,6.5 184.3,6.6 C184.4,6.7 185.1,6.9 185.9,6.9 L186.9,6.9 C187.7,6.9 188.5,6.8 188.5,6.6 C188.6,6.4 188,6.3 187.1,6.3 L185.7,6.3 Z" id="Shape" fill="#E0DBD6" />
                <path d="M180.4,11.5 C179.8,11.5 179.3,11.7 179.4,11.8 C179.4,11.9 179.9,12.1 180.4,12.1 C180.9,12.1 181.4,12 181.4,11.8 C181.4,11.5 181,11.4 180.4,11.5 Z" id="Shape" fill="#E0DBD6" />
                <path d="M183.3,9.8 C182.5,9.8 182,10 182,10.1 C182,10.2 182.6,10.4 183.3,10.4 C184,10.4 184.6,10.3 184.6,10.1 C184.6,9.9 184,9.8 183.3,9.8 Z" id="Shape" fill="#E0DBD6" />
                <path d="M147.3,10.1 C146.5,10.1 146,10.3 146,10.4 C146,10.5 146.6,10.7 147.3,10.7 C148,10.7 148.6,10.6 148.6,10.4 C148.6,10.2 148.1,10.1 147.3,10.1 Z" id="Shape" fill="#E0DBD6" />
                <path d="M156.5,18.5 C155.7,18.5 155,18.7 155.1,18.8 C155.2,18.9 155.9,19.1 156.7,19.1 C157.5,19.1 158.2,19 158.3,18.8 C158.4,18.6 157.7,18.5 156.9,18.5 L156.5,18.5 Z" id="Shape" fill="#E0DBD6" />
                <path d="M150.1,21.5 C149.3,21.5 148.7,21.6 148.8,21.8 C148.9,21.9 149.6,22.1 150.4,22.1 L152,22.1 C152.8,22.1 153.6,22 153.6,21.8 C153.7,21.6 153.1,21.5 152.3,21.5 L150.1,21.5 Z" id="Shape" fill="#E0DBD6" />
                <path d="M239.8,22.2 C239,22.2 238.4,22.3 238.5,22.5 C238.6,22.6 239.3,22.8 240.1,22.8 L241.7,22.8 C242.5,22.8 243.3,22.7 243.3,22.5 C243.4,22.3 242.8,22.2 242,22.2 L239.8,22.2 Z" id="Shape" fill="#E0DBD6" />
                <path d="M90.6,24.5 C89.8,24.5 89.2,24.7 89.2,24.8 C89.2,24.9 90,25.1 90.8,25.1 L91.2,25.1 C92,25.1 92.7,25 92.8,24.8 C92.9,24.6 92.2,24.5 91.4,24.5 L90.6,24.5 Z" id="Shape" fill="#E0DBD6" />
                <path d="M78,22 C77.2,22 76.6,22.2 76.6,22.3 C76.7,22.4 77.4,22.6 78.2,22.6 L78.6,22.6 C79.4,22.6 80.1,22.5 80.2,22.3 C80.3,22.1 79.7,22 78.8,22 L78,22 Z" id="Shape" fill="#E0DBD6" />
                <path d="M59.9,21.8 C59.1,21.8 58.5,22 58.5,22.1 C58.6,22.2 59.3,22.4 60.1,22.4 L60.5,22.4 C61.3,22.4 62,22.3 62.1,22.1 C62.2,21.9 61.5,21.8 60.7,21.8 L59.9,21.8 Z" id="Shape" fill="#E0DBD6" />
                <path d="M32.6,12.1 C31.8,12.1 31.2,12.2 31.3,12.4 C31.4,12.6 32.1,12.7 32.9,12.7 L34.6,12.7 C35.4,12.7 36.2,12.6 36.2,12.4 C36.3,12.2 35.7,12.1 34.9,12.1 L32.6,12.1 Z" id="Shape" fill="#E0DBD6" />
                <path d="M83.9,7.5 C83.1,7.4 82.4,7.5 82.5,7.6 C82.6,7.7 83.2,8 84,8.1 L84.4,8.2 C85.2,8.3 86,8.3 86,8.1 C86.1,7.9 85.5,7.7 84.7,7.6 L83.9,7.5 Z" id="Shape" fill="#E0DBD6" />
                <path d="M161.6,23.5 C160.8,23.5 160.2,23.7 160.2,23.8 C160.3,23.9 161,24.1 161.8,24.1 L162.2,24.1 C163,24.1 163.7,24 163.8,23.8 C163.9,23.6 163.2,23.5 162.4,23.5 L161.6,23.5 Z" id="Shape" fill="#E0DBD6" />
                <path d="M184.4,21.3 C183.6,21.3 183,21.5 183,21.6 C183.1,21.7 183.8,21.9 184.6,21.9 L185,21.9 C185.8,21.9 186.5,21.8 186.6,21.6 C186.7,21.4 186,21.3 185.2,21.3 L184.4,21.3 Z" id="Shape" fill="#E0DBD6" />
                <path d="M129.6,6.9 C128.8,6.9 128.3,7 128.4,7.2 C128.6,7.3 129.4,7.5 130.2,7.5 L137.9,7.5 C138.7,7.5 139.6,7.4 139.7,7.2 C139.8,7 139.4,6.9 138.5,6.9 L129.6,6.9 Z" id="Shape" fill="#E0DBD6" />
                <path d="M102.4,7 C101.6,7 101.1,7.1 101.3,7.3 C101.5,7.4 102.3,7.6 103.2,7.6 L111.3,7.6 C112.1,7.6 113,7.5 113.2,7.3 C113.4,7.1 112.9,7 112.1,7 L102.4,7 Z" id="Shape" fill="#E0DBD6" />
                <path d="M101,18.5 C100.2,18.5 99.6,18.6 99.7,18.8 C99.8,18.9 100.6,19.1 101.4,19.1 L104.4,19.1 C105.2,19.1 106,19 106.1,18.8 C106.2,18.6 105.6,18.5 104.8,18.5 L101,18.5 Z" id="Shape" fill="#E0DBD6" />
                <path d="M108.3,18.5 C107.5,18.5 106.9,18.6 107,18.8 C107.1,18.9 107.9,19.1 108.7,19.1 L111.4,19.1 C112.2,19.1 113,19 113.1,18.8 C113.2,18.6 112.6,18.5 111.8,18.5 L108.3,18.5 Z" id="Shape" fill="#E0DBD6" />
                <path d="M123.9,29.6 C123.1,29.6 122.4,29.8 122.5,29.9 C122.6,30 123.2,30.2 124,30.2 C124.8,30.2 125.4,30.1 125.5,29.9 C125.5,29.7 124.8,29.6 123.9,29.6 L123.9,29.6 Z" id="Shape" fill="#E0DBD6" />
                <path d="M121.8,11.1 C121,11 120.4,11.1 120.4,11.2 C120.5,11.4 121.2,11.6 122,11.7 L123.1,11.8 C123.9,11.9 124.7,11.9 124.8,11.7 C124.9,11.5 124.3,11.3 123.5,11.2 L121.8,11.1 Z" id="Shape" fill="#E0DBD6" />
                <path d="M189.9,23.6 C189.1,23.5 188.5,23.6 188.5,23.7 C188.6,23.9 189.3,24.1 190.1,24.2 L191.2,24.3 C192,24.4 192.8,24.4 192.9,24.2 C193,24 192.4,23.8 191.6,23.7 L189.9,23.6 Z" id="Shape" fill="#E0DBD6" />
                <path d="M187.3,11.5 C186.7,11.5 186.3,11.7 186.3,11.8 C186.3,11.9 186.8,12.1 187.3,12.1 C187.8,12.1 188.2,12 188.3,11.8 C188.3,11.5 187.8,11.4 187.3,11.5 Z" id="Shape" fill="#E0DBD6" />
                <path d="M219.6,18.8 C218.8,18.8 218.2,18.9 218.3,19.1 C218.4,19.2 219.2,19.4 220,19.4 L222.7,19.4 C223.5,19.4 224.3,19.3 224.4,19.1 C224.5,18.9 223.9,18.8 223.1,18.8 L219.6,18.8 Z" id="Shape" fill="#E0DBD6" />
                <path d="M245.7,7.1 C244.9,7.1 244.3,7.3 244.3,7.4 C244.4,7.5 245.1,7.7 245.9,7.7 L247,7.7 C247.8,7.7 248.6,7.6 248.6,7.4 C248.7,7.2 248.1,7.1 247.2,7.1 L245.7,7.1 Z" id="Shape" fill="#E0DBD6" />
                <path d="M128.5,31.1 C127.7,31.1 127.1,31.2 127.3,31.4 C127.4,31.5 128.2,31.7 129,31.7 L133.8,31.7 C134.6,31.7 135.4,31.6 135.5,31.4 C135.6,31.2 135.1,31.1 134.3,31.1 L128.5,31.1 Z" id="Shape" fill="#E0DBD6" />
                <path d="M95.2,31.1 C94.4,31.1 93.9,31.2 94,31.4 C94.1,31.6 95,31.7 95.8,31.7 L103.1,31.7 C103.9,31.7 104.7,31.6 104.9,31.4 C105.1,31.2 104.6,31.1 103.7,31.1 L95.2,31.1 Z" id="Shape" fill="#E0DBD6" />
                <path d="M107.6,31.1 C106.8,31.1 106.2,31.2 106.3,31.4 C106.4,31.5 107.2,31.7 108,31.7 L110.6,31.7 C111.4,31.7 112.2,31.6 112.3,31.4 C112.4,31.2 111.8,31.1 111,31.1 L107.6,31.1 Z" id="Shape" fill="#E0DBD6" />
                <path d="M48.8,31.2 C48,31.2 47.4,31.4 47.4,31.5 C47.5,31.6 48.2,31.8 49,31.8 L50,31.8 C50.8,31.8 51.6,31.7 51.6,31.5 C51.7,31.3 51.1,31.2 50.2,31.2 L48.8,31.2 Z" id="Shape" fill="#E0DBD6" />
            </g>
        </g>
    </g>
</svg>